<?xml version="1.0" encoding="UTF-8"?>
<svg id="Layer_1" data-name="Layer 1" xmlns="http://www.w3.org/2000/svg" xmlns:xlink="http://www.w3.org/1999/xlink" viewBox="0 0 178 41.64">
  <defs>
    <style>
      .cls-1 {
        fill: none;
      }

      .cls-2 {
        fill: url(#linear-gradient);
      }

      .cls-3, .cls-4 {
        fill: #fff;
      }

      .cls-4 {
        isolation: isolate;
        opacity: .98;
      }
    </style>
    <linearGradient id="linear-gradient" x1="19.11" y1="34.13" x2="64.61" y2="23.63" gradientTransform="translate(0 42.64) scale(1 -1)" gradientUnits="userSpaceOnUse">
      <stop offset="0" stop-color="#abcf37"/>
      <stop offset="1" stop-color="#34d5b3"/>
    </linearGradient>
  </defs>
  <rect class="cls-1" x="0" width="178" height="41.64"/>
  <path class="cls-4" d="M80.37,26.71c-3.18,0-5.78-.89-7.7-2.65-1.95-1.78-2.94-4.29-2.94-7.45s.99-5.67,2.94-7.46c1.92-1.75,4.51-2.63,7.7-2.63s5.78,.88,7.7,2.63c1.95,1.8,2.94,4.31,2.94,7.46s-.99,5.66-2.94,7.45c-1.92,1.76-4.51,2.65-7.7,2.65Zm0-16.35c-1.71-.1-3.39,.43-4.72,1.51-1.31,1.22-2.02,2.95-1.95,4.74-.06,1.78,.65,3.5,1.95,4.72,1.32,1.09,3.01,1.64,4.72,1.53,1.71,.11,3.4-.44,4.72-1.53,1.3-1.22,2.02-2.94,1.95-4.72,.07-1.79-.64-3.52-1.95-4.74-1.33-1.08-3.01-1.62-4.72-1.51Zm22.94,16.46c-2.66,.12-5.26-.8-7.25-2.57-1.86-1.79-2.87-4.29-2.77-6.87V7.58h3.96v9.81c-.09,1.57,.5,3.11,1.61,4.22,2.63,1.98,6.25,1.98,8.88,0,1.11-1.11,1.7-2.65,1.61-4.22V7.58h3.96v9.81c.1,2.58-.91,5.08-2.77,6.87-1.99,1.77-4.59,2.7-7.24,2.57Zm28.32-.36v-9.81c.09-1.58-.5-3.12-1.61-4.24-2.63-1.96-6.23-1.96-8.85,0-1.11,1.12-1.7,2.66-1.61,4.24v9.81h-3.95v-9.81c-.1-2.58,.9-5.09,2.76-6.89,4.21-3.41,10.24-3.41,14.45,0,1.86,1.8,2.86,4.3,2.76,6.89v9.81h-3.95Zm-115.59,0v-9.81c.09-1.58-.5-3.12-1.61-4.24-1.23-1.05-2.82-1.57-4.43-1.47-1.61-.1-3.2,.43-4.43,1.47-1.11,1.12-1.7,2.66-1.61,4.24v9.81H0v-9.81c-.1-2.58,.91-5.09,2.76-6.89,1.98-1.76,4.58-2.68,7.23-2.56,2.65-.12,5.24,.79,7.23,2.56,1.86,1.8,2.86,4.3,2.76,6.89v9.81h-3.95Zm132.28,.49c-3.13,0-5.67-.86-7.56-2.56-1.92-1.74-2.89-4.18-2.89-7.25-.09-2.17,.53-4.31,1.76-6.09,1.09-1.46,2.6-2.55,4.33-3.14,1.3-.47,2.68-.71,4.07-.71,.47,0,.94,.03,1.4,.08,1.09,.12,2.16,.38,3.19,.78v4.22c-1.26-.87-2.78-1.3-4.31-1.22-1.68-.1-3.33,.43-4.63,1.49-1.12,1.01-1.68,2.55-1.68,4.59s.57,3.59,1.68,4.6c2.78,1.96,6.49,1.96,9.27,0,1.16-1.1,1.77-2.65,1.69-4.24V0h4.13V17.51c.1,2.6-.95,5.11-2.87,6.87-1.9,1.71-4.46,2.57-7.58,2.57Zm13.32-.49v-3.73h7.57c1.17,.07,2.34-.17,3.38-.71,.47-.23,.77-.7,.79-1.21,0-.65-.46-1.13-1.37-1.43-.99-.26-2.01-.43-3.03-.51-2.67-.28-4.45-.67-5.45-1.18-1.64-.84-2.47-2.34-2.47-4.46,0-1.82,.99-3.49,2.59-4.35,1.7-.93,3.62-1.39,5.56-1.31h7.44v3.73h-7.44c-1.17-.07-2.34,.17-3.38,.71-.47,.23-.77,.69-.79,1.22,0,.65,.46,1.12,1.37,1.41,.99,.26,2.01,.43,3.03,.51,2.66,.29,4.45,.68,5.45,1.2,1.64,.84,2.47,2.34,2.47,4.46,0,1.81-.99,3.48-2.59,4.33-1.7,.95-3.62,1.4-5.56,1.32h-7.57Z"/>
  <path class="cls-2" d="M32.5,26.91c-2.76,.13-5.45-.84-7.5-2.69-1.9-1.81-2.86-4.36-2.86-7.57s.96-5.76,2.86-7.59c2.05-1.84,4.75-2.8,7.5-2.68,1.62-.02,3.23,.29,4.73,.91,1.38,.65,2.62,1.57,3.64,2.71,.94,.93,1.93,1.93,2.95,2.96,1.06,1.08,2.11,2.14,3.16,3.18,.5,.49,.99,1.02,1.49,1.55,2.45,2.6,4.97,5.27,8.66,5.27,1.67,.11,3.32-.44,4.59-1.54,1.28-1.24,1.97-2.96,1.9-4.74,.07-1.78-.62-3.51-1.9-4.76-1.28-1.08-2.92-1.62-4.59-1.52-1.74-.11-3.46,.43-4.82,1.52-.96,.97-1.61,2.2-1.88,3.54l-.16-.17-4.28-4.3V.01h4.38s0,8.56,0,8.56l.33-.23c1.91-1.24,4.16-1.87,6.44-1.79,2.75-.13,5.43,.82,7.49,2.64,1.9,1.8,2.86,4.32,2.86,7.49s-.96,5.68-2.86,7.47c-2.05,1.83-4.74,2.79-7.49,2.66-2.04,.05-4.05-.44-5.83-1.43-1-.64-1.93-1.39-2.78-2.22-.28-.26-.55-.51-.82-.74-.59-.51-2.51-2.51-3.91-3.97-.53-.56-.98-1.01-1.24-1.29-.48-.5-.97-1.02-1.45-1.55-2.4-2.62-4.88-5.33-8.59-5.33-1.67-.1-3.32,.45-4.6,1.54-1.29,1.27-1.98,3.02-1.91,4.82-.07,1.8,.62,3.54,1.91,4.8,1.27,1.1,2.92,1.66,4.6,1.56,1.68,.11,3.33-.45,4.6-1.56,1.09-1.06,1.71-2.51,1.72-4.03l3.29,3.36c-.39,1.31-1.12,2.49-2.11,3.44-2.05,1.85-4.74,2.82-7.5,2.69Z"/>
  <g>
    <path class="cls-3" d="M85.95,41.49v-8.59h2.78c1.05,0,1.74,.04,2.06,.13,.49,.13,.9,.41,1.24,.84s.5,.99,.5,1.67c0,.53-.1,.97-.29,1.33s-.43,.64-.73,.85-.59,.34-.9,.41c-.41,.08-1.01,.12-1.8,.12h-1.13v3.24h-1.73Zm1.73-7.14v2.44h.95c.68,0,1.14-.04,1.37-.13s.41-.23,.54-.42,.2-.41,.2-.67c0-.31-.09-.57-.28-.77s-.42-.33-.7-.38c-.21-.04-.62-.06-1.25-.06h-.84Z"/>
    <path class="cls-3" d="M93.96,41.49v-8.59h1.73v3.38h3.4v-3.38h1.73v8.59h-1.73v-3.76h-3.4v3.76h-1.73Z"/>
    <path class="cls-3" d="M102.57,41.49v-8.59h1.73v8.59h-1.73Z"/>
    <path class="cls-3" d="M106,41.49v-8.52h1.73v7.07h4.31v1.45h-6.05Z"/>
    <path class="cls-3" d="M113.29,41.49v-8.59h1.73v3.38h3.4v-3.38h1.73v8.59h-1.73v-3.76h-3.4v3.76h-1.73Z"/>
    <path class="cls-3" d="M129.7,41.49h-1.89l-.75-1.95h-3.43l-.71,1.95h-1.84l3.35-8.59h1.83l3.44,8.59Zm-3.19-3.4l-1.18-3.19-1.16,3.19h2.34Z"/>
    <path class="cls-3" d="M130.62,41.49v-8.59h3.65c.92,0,1.58,.08,2,.23s.75,.43,1,.82,.38,.85,.38,1.35c0,.64-.19,1.18-.57,1.6s-.95,.68-1.7,.79c.38,.22,.68,.46,.93,.72s.57,.73,.99,1.39l1.05,1.68h-2.07l-1.25-1.87c-.45-.67-.75-1.09-.91-1.26s-.34-.29-.52-.36-.47-.1-.87-.1h-.35v3.59h-1.73Zm1.73-4.96h1.28c.83,0,1.35-.04,1.56-.11s.37-.19,.49-.36,.18-.39,.18-.64c0-.29-.08-.52-.23-.7s-.37-.29-.65-.34c-.14-.02-.56-.03-1.27-.03h-1.35v2.18Z"/>
    <path class="cls-3" d="M139.26,41.49v-8.59h2.6l1.56,5.86,1.54-5.86h2.6v8.59h-1.61v-6.76l-1.71,6.76h-1.67l-1.7-6.76v6.76h-1.61Z"/>
    <path class="cls-3" d="M148.93,37.25c0-.88,.13-1.61,.39-2.2,.2-.44,.46-.83,.8-1.18s.71-.61,1.11-.77c.54-.23,1.15-.34,1.85-.34,1.27,0,2.28,.39,3.04,1.18s1.14,1.88,1.14,3.28-.38,2.47-1.13,3.25-1.76,1.17-3.02,1.17-2.29-.39-3.05-1.17-1.13-1.85-1.13-3.22Zm1.79-.06c0,.97,.22,1.71,.67,2.21s1.02,.75,1.71,.75,1.26-.25,1.7-.75,.67-1.25,.67-2.24-.22-1.72-.65-2.2-1-.73-1.72-.73-1.29,.25-1.73,.74-.66,1.23-.66,2.22Z"/>
    <path class="cls-3" d="M158.63,41.49v-8.59h1.69l3.52,5.74v-5.74h1.61v8.59h-1.74l-3.46-5.6v5.6h-1.61Z"/>
    <path class="cls-3" d="M167.22,41.49v-8.59h1.73v8.59h-1.73Z"/>
    <path class="cls-3" d="M176.11,38.33l1.68,.53c-.26,.94-.69,1.63-1.29,2.09s-1.36,.68-2.28,.68c-1.14,0-2.08-.39-2.81-1.17s-1.1-1.84-1.1-3.2c0-1.43,.37-2.54,1.11-3.33s1.71-1.19,2.91-1.19c1.05,0,1.9,.31,2.56,.93,.39,.37,.68,.89,.88,1.58l-1.72,.41c-.1-.45-.31-.8-.64-1.05s-.71-.39-1.17-.39c-.64,0-1.15,.23-1.55,.69s-.59,1.2-.59,2.22c0,1.09,.2,1.86,.59,2.32s.9,.69,1.52,.69c.46,0,.86-.15,1.19-.44s.57-.75,.71-1.38Z"/>
  </g>
</svg>